<?xml version="1.0" encoding="UTF-8"?>
<svg version="1.1" xmlns="http://www.w3.org/2000/svg" width="1024" height="1024">
<path d="M0 0 C20.01699319 17.39021887 33.18231181 42.36409574 35.47851562 68.89257812 C37.17232413 101.7935252 26.98297862 129.56004503 5.17773438 154.13476562 C-11.22956552 171.42967354 -35.40803868 184.1879856 -59.46606445 185.57348633 C-87.21676312 186.09535831 -109.71671463 182.46015276 -132.39257812 165.39648438 C-133.79056641 164.34847656 -133.79056641 164.34847656 -135.21679688 163.27929688 C-143.96125735 156.42520094 -151.28212116 148.67244346 -157.39257812 139.39648438 C-158.05257812 138.73648438 -158.71257812 138.07648438 -159.39257812 137.39648438 C-164.05724401 129.15977705 -167.88258507 120.68356489 -170.89257812 111.70898438 C-171.14749023 110.95552734 -171.40240234 110.20207031 -171.66503906 109.42578125 C-172.87558219 105.66002436 -173.70540017 102.36150383 -173.39257812 98.39648438 C-174.05257812 98.06648437 -174.71257812 97.73648438 -175.39257812 97.39648438 C-176.28244334 64.74869858 -172.7436381 34.92852658 -149.76757812 9.95898438 C-147.99218636 8.08816417 -146.19416455 6.24234942 -144.39257812 4.39648438 C-143.81121094 3.75324219 -143.22984375 3.11 -142.63085938 2.44726562 C-105.68983826 -37.47136929 -39.19214927 -33.21138198 0 0 Z M-70.39257812 5.39648438 C-70.53663086 6.12158203 -70.68068359 6.84667969 -70.82910156 7.59375 C-79.72909813 51.86236376 -79.72909813 51.86236376 -95.39257812 62.39648438 C-105.66752062 68.6756159 -118.62842766 71.14301084 -130.26757812 73.72070312 C-130.96882813 73.94371094 -131.67007813 74.16671875 -132.39257812 74.39648438 C-132.88757813 75.38648438 -132.88757813 75.38648438 -133.39257812 76.39648438 C-132.16023438 76.62722656 -130.92789063 76.85796875 -129.65820312 77.09570312 C-112.68845155 80.38831585 -95.91444049 85.10610657 -85.16992188 99.67382812 C-76.02252147 113.6864393 -72.98904424 129.14890095 -70.39257812 145.39648438 C-69.73257813 145.06648437 -69.07257813 144.73648438 -68.39257812 144.39648438 C-67.71992746 141.99695409 -67.71992746 141.99695409 -67.27929688 139.06835938 C-67.08609863 137.96435791 -66.89290039 136.86035645 -66.69384766 135.72290039 C-66.49130371 134.54268311 -66.28875977 133.36246582 -66.08007812 132.14648438 C-63.30993299 117.01100918 -59.5676964 99.70379545 -46.54492188 89.78710938 C-34.34838302 81.90694997 -21.4208033 78.66151843 -7.39257812 75.39648438 C-10.91693162 73.04691538 -14.26318046 72.43657789 -18.33007812 71.58398438 C-33.57940373 68.16904006 -46.98264652 62.36357694 -56.39257812 49.39648438 C-64.15870964 36.63632824 -66.49076518 19.85836517 -69.39257812 5.39648438 C-69.72257812 5.39648438 -70.05257812 5.39648438 -70.39257812 5.39648438 Z M-27.39257812 31.39648438 C-27.39257812 32.38648438 -27.39257812 33.37648438 -27.39257812 34.39648438 C-28.05257812 34.39648438 -28.71257812 34.39648438 -29.39257812 34.39648438 C-29.12864311 37.82878885 -29.12864311 37.82878885 -28.39257812 41.39648438 C-24.54226762 43.96335804 -22.80688049 43.22937161 -18.39257812 42.39648438 C-17.09198748 39.66462842 -17.09198748 39.66462842 -16.39257812 36.39648438 C-17.50774704 34.00683671 -18.5320827 32.2569798 -20.39257812 30.39648438 C-24.02452453 30.20499357 -24.02452453 30.20499357 -27.39257812 31.39648438 Z M-4.39257812 60.39648438 C-4.72257813 61.71648437 -5.05257812 63.03648437 -5.39257812 64.39648438 C-4.73257813 64.39648438 -4.07257813 64.39648438 -3.39257812 64.39648438 C-3.72257813 65.71648437 -4.05257812 67.03648437 -4.39257812 68.39648438 C-1.38226069 69.33072082 -0.52607545 69.44098348 2.60742188 68.39648438 C3.28543222 65.49575257 3.28543222 65.49575257 3.60742188 62.39648438 C1.70987043 60.0467462 1.70987043 60.0467462 -1.51757812 60.27148438 C-2.46632813 60.31273437 -3.41507813 60.35398437 -4.39257812 60.39648438 Z M-15.26757812 105.39648438 C-17.73678333 107.31438817 -17.73678333 107.31438817 -17.95507812 110.83398438 C-17.63453083 114.37208819 -17.63453083 114.37208819 -15.83007812 116.89648438 C-13.35489775 118.72139673 -13.35489775 118.72139673 -9.76757812 118.33398438 C-6.13740888 117.72139988 -6.13740888 117.72139988 -4.39257812 114.39648438 C-4.0530025 110.32157686 -4.07925326 108.86647167 -6.39257812 105.39648438 C-9.88994041 104.30841611 -11.79270917 104.1878343 -15.26757812 105.39648438 Z M-34.39257812 131.39648438 C-36.69920411 133.28308313 -36.69920411 133.28308313 -36.70507812 136.39648438 C-36.60195312 137.38648438 -36.49882812 138.37648438 -36.39257812 139.39648438 C-33.62269737 141.71191645 -33.62269737 141.71191645 -30.76757812 141.08398438 C-28.45755847 140.62233297 -28.45755847 140.62233297 -27.39257812 139.39648438 C-27.35164875 137.06351004 -27.35016089 134.72943213 -27.39257812 132.39648438 C-30.79578746 131.7197499 -30.79578746 131.7197499 -34.39257812 131.39648438 Z " fill="#2BD774" transform="translate(267.392578125,421.603515625)"/>
<path d="M0 0 C8.50245046 6.99441448 15.53473683 14.91402928 16.97265625 26.27734375 C17.14087891 28.07171875 17.14087891 28.07171875 17.3125 29.90234375 C13.43910021 30.19394786 9.5685148 30.37067072 5.6875 30.52734375 C4.59308594 30.61113281 3.49867188 30.69492187 2.37109375 30.78125 C-0.92256072 30.88105771 -3.5243582 30.84524674 -6.6875 29.90234375 C-9.49383467 26.88674709 -10.9916299 23.61748419 -12.6875 19.90234375 C-17.59832981 14.58227813 -24.65710857 13.23905391 -31.625 12.46484375 C-39.31552919 12.86879074 -45.90568986 15.53071127 -51.1875 21.15234375 C-58.63625121 30.42900937 -59.421039 41.3657759 -58.6875 52.90234375 C-57.17101027 61.98934128 -54.11625283 70.80150982 -46.4375 76.33984375 C-38.67433871 80.93123568 -32.22884028 81.42601985 -23.421875 79.66015625 C-17.10466728 77.90938725 -13.45913298 74.10108109 -9.6875 68.90234375 C-8.6975 66.59234375 -7.7075 64.28234375 -6.6875 61.90234375 C1.5625 61.90234375 9.8125 61.90234375 18.3125 61.90234375 C13.65893346 77.41423221 7.09508878 88.1268673 -6.8046875 96.578125 C-14.60994832 100.16346839 -21.94734972 101.43555144 -30.5 101.33984375 C-31.46268799 101.33154541 -32.42537598 101.32324707 -33.41723633 101.31469727 C-47.29805883 100.98667514 -59.642926 96.50443499 -69.4375 86.33984375 C-80.44842554 72.57618683 -84.3073922 55.27118787 -82.6875 37.90234375 C-79.94806478 23.10055669 -74.26100293 8.96589341 -61.55664062 0.17016602 C-60.36417217 -0.62540382 -59.1636849 -1.4090996 -57.95507812 -2.17993164 C-56.50418071 -3.10965143 -55.09173532 -4.09885428 -53.6875 -5.09765625 C-53.6875 -5.75765625 -53.6875 -6.41765625 -53.6875 -7.09765625 C-52.594375 -7.22140625 -51.50125 -7.34515625 -50.375 -7.47265625 C-47.95468726 -7.76038574 -45.61453167 -8.11392308 -43.234375 -8.64453125 C-27.96828245 -12.02683918 -12.53215537 -9.49953444 0 0 Z " fill="#2AD372" transform="translate(414.6875,455.09765625)"/>
<path d="M0 0 C7.89210693 5.88377754 12.42750973 15.04294967 14.375 24.5625 C16.37235264 38.76816111 14.70645353 51.71086697 7 64 C2.06059086 70.5282344 -4.07315622 74.85252796 -12 77 C-20.53759925 78.01232814 -28.68964503 77.91582636 -36 73 C-37.98 71.35 -39.96 69.7 -42 68 C-42 79.22 -42 90.44 -42 102 C-47.22380971 102.74625853 -51.7234602 103.10864195 -56.9375 103.0625 C-57.62134766 103.05798828 -58.30519531 103.05347656 -59.00976562 103.04882812 C-60.67321604 103.0371956 -62.3366205 103.01926694 -64 103 C-65.12466335 97.63662335 -65.0981432 92.49456205 -65.02172852 87.04736328 C-65.01212097 86.0613765 -65.00251343 85.07538971 -64.99261475 84.05952454 C-64.95973561 80.81304533 -64.91936118 77.56670539 -64.87890625 74.3203125 C-64.8545943 72.06444789 -64.83075128 69.80857818 -64.80735779 67.55270386 C-64.74462387 61.62449319 -64.675527 55.69637315 -64.60510254 49.76824951 C-64.53432243 43.71533321 -64.46956342 37.66235282 -64.40429688 31.609375 C-64.27542238 19.73951289 -64.13982538 7.86973781 -64 -4 C-60.52125243 -4.19590444 -57.04199096 -4.38031592 -53.5625 -4.5625 C-52.56927734 -4.61857422 -51.57605469 -4.67464844 -50.55273438 -4.73242188 C-49.60849609 -4.78076172 -48.66425781 -4.82910156 -47.69140625 -4.87890625 C-46.81685791 -4.9260376 -45.94230957 -4.97316895 -45.04125977 -5.02172852 C-43 -5 -43 -5 -42 -4 C-41.54540142 -1.34536879 -41.29756762 1.32189138 -41 4 C-40.360625 3.2575 -39.72125 2.515 -39.0625 1.75 C-28.55767948 -8.78474878 -11.65824539 -7.76540519 0 0 Z M-39.73828125 19.8671875 C-44.29589705 27.57139253 -43.37010927 37.5030198 -42 46 C-40.23749078 51.38544484 -36.84069956 55.11059019 -32 58 C-26.62546198 59.76535921 -21.33497213 59.25776539 -16.08203125 57.2890625 C-11.34120388 54.35384105 -8.72057831 49.16173494 -7 44 C-6.08613244 29.653952 -6.08613244 29.653952 -12.375 17.1875 C-17.28029041 13.09975799 -20.38323748 11.45719112 -26.796875 11.72265625 C-32.4723877 12.43712682 -36.27514973 15.52236632 -39.73828125 19.8671875 Z " fill="#29D171" transform="translate(586,479)"/>
<path d="M0 0 C0.89460937 -0.00128906 1.78921875 -0.00257813 2.7109375 -0.00390625 C3.65195312 -0.00003906 4.59296875 0.00382812 5.5625 0.0078125 C6.97402344 0.00201172 6.97402344 0.00201172 8.4140625 -0.00390625 C9.75597656 -0.00197266 9.75597656 -0.00197266 11.125 0 C11.95128906 0.00112793 12.77757812 0.00225586 13.62890625 0.00341797 C15.5625 0.1328125 15.5625 0.1328125 16.5625 1.1328125 C16.72246166 3.72434357 16.82188697 6.2923327 16.87890625 8.88671875 C16.89968735 9.66216537 16.92046844 10.437612 16.94187927 11.23655701 C17.00745802 13.72271558 17.06629799 16.20898295 17.125 18.6953125 C17.16817733 20.37696454 17.21179136 22.05860544 17.25585938 23.74023438 C17.36314779 27.87098121 17.46439132 32.00183786 17.5625 36.1328125 C18.08199219 35.72289062 18.60148438 35.31296875 19.13671875 34.890625 C27.09436764 28.74220127 34.12532716 26.46154905 44.2890625 27.37890625 C52.11436047 28.71464442 57.30172718 32.17983274 62.5625 38.1328125 C68.55603941 46.78092992 68.84539119 55.01354296 68.7578125 65.28515625 C68.7549826 66.54042618 68.75215271 67.79569611 68.74923706 69.08900452 C68.73997127 72.40495597 68.72204299 75.72062551 68.6998291 79.03649902 C68.67926595 82.42860495 68.67021309 85.82074016 68.66015625 89.21289062 C68.63815121 95.8529517 68.60364964 102.49284359 68.5625 109.1328125 C57.6725 108.6378125 57.6725 108.6378125 46.5625 108.1328125 C46.52511719 104.61625 46.48773437 101.0996875 46.44921875 97.4765625 C46.40294991 94.05430028 46.35173561 90.63214511 46.30004883 87.20996094 C46.26688427 84.83958492 46.23882622 82.46913155 46.21606445 80.09863281 C46.18236312 76.68260874 46.13003791 73.2672882 46.07421875 69.8515625 C46.06782883 68.79916382 46.0614389 67.74676514 46.05485535 66.66247559 C45.92251128 59.97356189 45.65393319 53.12763841 40.5625 48.1953125 C36.33670665 45.95035978 32.25768771 45.52114584 27.5625 46.1328125 C23.8284137 47.4268028 21.18104323 49.24208851 18.89526367 52.53369141 C16.97541988 57.71821919 17.08247698 62.60536824 17.05078125 68.09375 C17.03283005 69.23945465 17.01487885 70.3851593 16.99638367 71.56558228 C16.94234563 75.21295529 16.90840482 78.8601979 16.875 82.5078125 C16.8418213 84.9856952 16.80733113 87.46356071 16.77148438 89.94140625 C16.6866224 96.00511417 16.61977947 102.06878383 16.5625 108.1328125 C9.3025 108.1328125 2.0425 108.1328125 -5.4375 108.1328125 C-5.46004828 94.1990163 -5.47841349 80.26523213 -5.48931217 66.33142185 C-5.49454168 59.8621357 -5.50164056 53.39286261 -5.51293945 46.92358398 C-5.52376592 40.6861095 -5.52977632 34.44864763 -5.53237724 28.21116447 C-5.53423193 25.82560973 -5.53785336 23.44005571 -5.54323006 21.0545063 C-5.55043729 17.72585659 -5.55149108 14.39725971 -5.55102539 11.06860352 C-5.55462067 10.07166977 -5.55821594 9.07473602 -5.56192017 8.04759216 C-5.5605455 7.14590302 -5.55917084 6.24421387 -5.55775452 5.31520081 C-5.55867631 4.5270678 -5.5595981 3.7389348 -5.56054783 2.92691898 C-5.31303387 -0.68197364 -3.08470339 0.00421079 0 0 Z " fill="#28D271" transform="translate(615.4375,445.8671875)"/>
<path d="M0 0 C7.85651063 7.64937099 11.78113348 17.52861652 12.20703125 28.4140625 C12.20445312 29.54199219 12.201875 30.66992188 12.19921875 31.83203125 C12.20308594 33.54326172 12.20308594 33.54326172 12.20703125 35.2890625 C12.07421875 38.01953125 12.07421875 38.01953125 11.07421875 39.01953125 C9.3861989 39.11306288 7.69426668 39.13697916 6.00366211 39.13305664 C4.92261703 39.13298111 3.84157196 39.13290558 2.72776794 39.13282776 C0.96373375 39.12508583 0.96373375 39.12508583 -0.8359375 39.1171875 C-2.03310898 39.11577255 -3.23028046 39.1143576 -4.46372986 39.11289978 C-8.30527191 39.10728104 -12.14675668 39.09472536 -15.98828125 39.08203125 C-18.58528562 39.07701866 -21.1822909 39.07245534 -23.77929688 39.06835938 C-30.16147804 39.05730552 -36.54362555 39.04054917 -42.92578125 39.01953125 C-42.64863281 39.70660156 -42.37148438 40.39367187 -42.0859375 41.1015625 C-41.72371094 42.00261719 -41.36148437 42.90367187 -40.98828125 43.83203125 C-40.62863281 44.72535156 -40.26898438 45.61867188 -39.8984375 46.5390625 C-39.18964639 48.34662215 -38.53975655 50.17760534 -37.92578125 52.01953125 C-32.43814025 55.60760421 -26.42755723 56.42155934 -20.07421875 55.5 C-15.38446575 54.45120069 -12.58648225 53.01058275 -9.92578125 49.01953125 C-7.16012743 48.09764664 -5.54294423 47.90167903 -2.6953125 47.921875 C-1.49165039 47.92670898 -1.49165039 47.92670898 -0.26367188 47.93164062 C0.98639648 47.94420898 0.98639648 47.94420898 2.26171875 47.95703125 C3.52918945 47.96379883 3.52918945 47.96379883 4.82226562 47.97070312 C6.9062803 47.98247722 8.99025852 48.00041235 11.07421875 48.01953125 C9.77668619 57.64858869 4.59735049 63.22301991 -2.92578125 69.01953125 C-11.42115122 75.17867448 -22.87326643 74.98891551 -32.92578125 74.01953125 C-43.76585158 71.73741118 -52.64533258 65.05763885 -58.92578125 56.01953125 C-65.09454931 43.77546132 -65.71950459 29.8738305 -61.97265625 16.7421875 C-59.41805052 10.09830618 -55.19918991 4.75207749 -49.92578125 0.01953125 C-49.22453125 -0.66109375 -48.52328125 -1.34171875 -47.80078125 -2.04296875 C-33.20825452 -11.87706285 -13.48848791 -11.18155629 0 0 Z M-39.92578125 16.01953125 C-40.91578125 18.98953125 -41.90578125 21.95953125 -42.92578125 25.01953125 C-31.70578125 25.01953125 -20.48578125 25.01953125 -8.92578125 25.01953125 C-9.89490538 17.62272411 -9.89490538 17.62272411 -13.92578125 12.01953125 C-23.0962729 5.70381952 -32.86651377 6.99935614 -39.92578125 16.01953125 Z " fill="#29D271" transform="translate(500.92578125,481.98046875)"/>
<path d="M0 0 C9.9381102 7.16002176 14.06617334 14.26469338 17 26 C17 31.61 17 37.22 17 43 C-0.82 43.33 -18.64 43.66 -37 44 C-33.26487632 54.31836814 -33.26487632 54.31836814 -25.3125 59.3125 C-19.33741798 60.55261136 -14.02657934 60.14712038 -8.6875 57.125 C-7.0591946 55.8375027 -5.43344292 54.54675434 -3.8125 53.25 C0.64895037 51.26713317 5.19018658 51.77256574 10 52 C10.495 51.01 10.495 51.01 11 50 C11 50.66 11 51.32 11 52 C12.65 52 14.3 52 16 52 C16.33 52.66 16.66 53.32 17 54 C13.78663347 63.4469464 7.59045161 70.3656502 -1.1875 74.9375 C-10.33269951 79.29587456 -22.58916247 79.47341656 -32.375 76.9375 C-40.43265582 74.04813857 -48.49375075 68.37630085 -53 61 C-55.97986997 54.60299652 -58.5980087 48.10184635 -59 41 C-59.05027344 40.2678125 -59.10054687 39.535625 -59.15234375 38.78125 C-59.58454612 27.85517397 -56.72318975 17.68168415 -50 9 C-37.55486102 -4.32090801 -16.50898943 -9.74816518 0 0 Z M-32.8125 17.875 C-35.47148234 21.67354621 -37 24.34317993 -37 29 C-25.78 29 -14.56 29 -3 29 C-4.82376929 21.70492284 -5.62209457 18.62243776 -11 14 C-18.67828211 10.32082316 -27.03533437 11.28223451 -32.8125 17.875 Z " fill="#29D270" transform="translate(751,478)"/>
<path d="M0 0 C0.83586653 26.67436846 1.12348681 53.31312726 1 80 C-5.93 80 -12.86 80 -20 80 C-20.66 78.02 -21.32 76.04 -22 74 C-22.50789062 74.40992188 -23.01578125 74.81984375 -23.5390625 75.2421875 C-24.22742188 75.78101563 -24.91578125 76.31984375 -25.625 76.875 C-26.29789063 77.40867187 -26.97078125 77.94234375 -27.6640625 78.4921875 C-34.53894621 82.92982147 -42.09927331 82.68739803 -50 82 C-57.42959126 80.34125436 -61.59039025 77.04831607 -66 71 C-66.66 70.34 -67.32 69.68 -68 69 C-71.18417518 60.9552117 -71.40408555 52.99705264 -71.29296875 44.45703125 C-71.28872391 43.20742111 -71.28447906 41.95781097 -71.28010559 40.67033386 C-71.26626728 37.38723578 -71.23943162 34.1046007 -71.20599365 30.82165527 C-71.17501412 27.4560302 -71.16154142 24.09033667 -71.14648438 20.72460938 C-71.1135818 14.14953906 -71.06188625 7.5748588 -71 1 C-63.74 1 -56.48 1 -49 1 C-48.98541748 2.57410645 -48.97083496 4.14821289 -48.95581055 5.77001953 C-48.89777403 11.61839343 -48.82054047 17.46638449 -48.73754883 23.31445312 C-48.70432486 25.84401225 -48.67628511 28.37364505 -48.65356445 30.90332031 C-48.61997296 34.54263667 -48.56765246 38.18127934 -48.51171875 41.8203125 C-48.50532883 42.94865509 -48.4989389 44.07699768 -48.49235535 45.23953247 C-48.35460745 53.04455092 -48.35460745 53.04455092 -45 60 C-40.32160011 63.11893326 -35.4767743 62.58602209 -30 62 C-26.35729562 60.3042583 -24.63162113 59.29329546 -22.87149048 55.68928528 C-21.95643731 52.86557225 -21.72438016 50.62004122 -21.68115234 47.65893555 C-21.66128265 46.6182341 -21.64141296 45.57753265 -21.62094116 44.5052948 C-21.60938995 43.3936647 -21.59783875 42.28203461 -21.5859375 41.13671875 C-21.56657135 39.98959915 -21.5472052 38.84247955 -21.5272522 37.66059875 C-21.46755533 34.0029744 -21.42110998 30.34531841 -21.375 26.6875 C-21.33681117 24.20506453 -21.29775892 21.72264218 -21.2578125 19.24023438 C-21.16186181 13.16027288 -21.07678522 7.08023211 -21 1 C-17.68752012 0.83293193 -14.37501287 0.66641273 -11.0625 0.5 C-10.11697266 0.45230469 -9.17144531 0.40460938 -8.19726562 0.35546875 C-7.29814453 0.31035156 -6.39902344 0.26523437 -5.47265625 0.21875 C-4.64000244 0.17685547 -3.80734863 0.13496094 -2.94946289 0.09179688 C-1.96692123 0.04553067 -0.98363035 0 0 0 Z " fill="#28D070" transform="translate(849,474)"/>
<path d="M0 0 C5.92400888 4.8750552 9.56063204 9.63500112 11.37890625 17.15234375 C11.37890625 18.14234375 11.37890625 19.13234375 11.37890625 20.15234375 C1.47890625 20.64734375 1.47890625 20.64734375 -8.62109375 21.15234375 C-11.09609375 17.19234375 -11.09609375 17.19234375 -13.62109375 13.15234375 C-17.91697136 10.2065991 -23.58900149 10.64591913 -28.62109375 11.15234375 C-32.17881242 12.05204753 -32.17881242 12.05204753 -34.62109375 14.15234375 C-35.86160182 17.09344233 -35.86160182 17.09344233 -35.62109375 20.15234375 C-33.20121055 23.74631842 -29.41494193 24.20446639 -25.43359375 25.08984375 C-24.73250488 25.25677734 -24.03141602 25.42371094 -23.30908203 25.59570312 C-20.34446263 26.30103026 -17.37433561 26.98106952 -14.40283203 27.65673828 C-12.26490166 28.14569486 -10.13061752 28.64875974 -7.99609375 29.15234375 C-6.72507812 29.44109375 -5.4540625 29.72984375 -4.14453125 30.02734375 C2.3035514 32.08615506 6.5028507 35.66126505 10.37890625 41.15234375 C13.06582064 47.62536478 12.75346659 53.23010691 10.47265625 59.73828125 C6.99640465 67.55984735 2.04886525 71.86765308 -5.87109375 74.96484375 C-16.80920659 78.42857948 -31.02868692 79.26788673 -41.62109375 74.15234375 C-48.88147572 70.03158642 -54.12058089 66.1206583 -57.203125 58.25 C-57.72227054 55.64456867 -57.2735617 53.70451432 -56.62109375 51.15234375 C-53.70220227 50.99018311 -50.7923015 50.87143173 -47.87109375 50.77734375 C-47.04609375 50.72707031 -46.22109375 50.67679688 -45.37109375 50.625 C-42.9832472 50.56722952 -40.94413097 50.58721184 -38.62109375 51.15234375 C-36.2421875 54.05859375 -36.2421875 54.05859375 -34.62109375 57.15234375 C-29.38118621 60.2346423 -24.56090798 60.93803346 -18.62109375 60.15234375 C-14.51197037 59.00615563 -12.05635004 57.80522818 -9.62109375 54.15234375 C-9.93616002 51.01012408 -9.93616002 51.01012408 -10.62109375 48.15234375 C-16.18314426 46.26496414 -21.75007057 44.90486773 -27.51391602 43.81640625 C-48.64506317 39.75935901 -48.64506317 39.75935901 -54.87109375 31.58984375 C-57.97061524 25.5417138 -57.70486239 18.23162198 -55.9921875 11.78515625 C-52.8531701 4.54993228 -46.67604625 -0.21100968 -39.55859375 -3.22265625 C-27.85570665 -7.70129857 -10.4588134 -7.37260617 0 0 Z " fill="#27CE6E" transform="translate(915.62109375,478.84765625)"/>
<path d="M0 0 C0.89460937 -0.00128906 1.78921875 -0.00257813 2.7109375 -0.00390625 C3.65195312 -0.00003906 4.59296875 0.00382812 5.5625 0.0078125 C6.97402344 0.00201172 6.97402344 0.00201172 8.4140625 -0.00390625 C9.75597656 -0.00197266 9.75597656 -0.00197266 11.125 0 C11.95128906 0.00112793 12.77757812 0.00225586 13.62890625 0.00341797 C15.5625 0.1328125 15.5625 0.1328125 16.5625 1.1328125 C16.74751812 3.91913582 16.87098717 6.68269348 16.94921875 9.47265625 C16.97474319 10.30994766 17.00026764 11.14723907 17.02656555 12.00990295 C17.07866517 13.78444081 17.12808093 15.55905914 17.17504883 17.33374023 C17.24959783 20.05562882 17.34023026 22.7766791 17.43164062 25.49804688 C17.48015676 27.21872237 17.52771474 28.9394252 17.57421875 30.66015625 C17.60327805 31.47790024 17.63233734 32.29564423 17.66227722 33.13816833 C17.70697457 35.13615992 17.64407034 37.13598639 17.5625 39.1328125 C16.9025 39.7928125 16.2425 40.4528125 15.5625 41.1328125 C15.0675 21.8278125 15.0675 21.8278125 14.5625 2.1328125 C8.6225 2.1328125 2.6825 2.1328125 -3.4375 2.1328125 C-3.7675 36.4528125 -4.0975 70.7728125 -4.4375 106.1328125 C-2.7875 106.1328125 -1.1375 106.1328125 0.5625 106.1328125 C0.5625 105.4728125 0.5625 104.8128125 0.5625 104.1328125 C3.2025 104.1328125 5.8425 104.1328125 8.5625 104.1328125 C8.5625 104.7928125 8.5625 105.4528125 8.5625 106.1328125 C10.5425 106.1328125 12.5225 106.1328125 14.5625 106.1328125 C14.55464478 104.82799927 14.55464478 104.82799927 14.54663086 103.49682617 C14.39411545 74.26985399 14.39411545 74.26985399 14.875 62.9453125 C14.89747803 62.20627686 14.91995605 61.46724121 14.94311523 60.70581055 C15.16820203 56.41282856 16.03715853 53.61954402 18.5625 50.1328125 C18.8925 50.7928125 19.2225 51.4528125 19.5625 52.1328125 C19.25970123 52.72624451 18.95690247 53.31967651 18.64492798 53.93109131 C17.34717433 56.57079738 17.2863719 58.42694184 17.24365234 61.36035156 C17.22378265 62.40112854 17.20391296 63.44190552 17.18344116 64.51422119 C17.16611435 66.18940826 17.16611435 66.18940826 17.1484375 67.8984375 C17.12907135 69.04697205 17.1097052 70.19550659 17.0897522 71.37884521 C17.02997874 75.0467588 16.98357936 78.71470379 16.9375 82.3828125 C16.89931822 84.86980534 16.86026638 87.35678499 16.8203125 89.84375 C16.72427879 95.93999699 16.64023899 102.03630588 16.5625 108.1328125 C9.3025 108.1328125 2.0425 108.1328125 -5.4375 108.1328125 C-5.46004828 94.1990163 -5.47841349 80.26523213 -5.48931217 66.33142185 C-5.49454168 59.8621357 -5.50164056 53.39286261 -5.51293945 46.92358398 C-5.52376592 40.6861095 -5.52977632 34.44864763 -5.53237724 28.21116447 C-5.53423193 25.82560973 -5.53785336 23.44005571 -5.54323006 21.0545063 C-5.55043729 17.72585659 -5.55149108 14.39725971 -5.55102539 11.06860352 C-5.55462067 10.07166977 -5.55821594 9.07473602 -5.56192017 8.04759216 C-5.5605455 7.14590302 -5.55917084 6.24421387 -5.55775452 5.31520081 C-5.55867631 4.5270678 -5.5595981 3.7389348 -5.56054783 2.92691898 C-5.31303387 -0.68197364 -3.08470339 0.00421079 0 0 Z " fill="#2EAD61" transform="translate(615.4375,445.8671875)"/>
<path d="M0 0 C5.94 0 11.88 0 18 0 C18 13.2 18 26.4 18 40 C17.67 40 17.34 40 17 40 C17 27.46 17 14.92 17 2 C11.72 2 6.44 2 1 2 C1.01047363 4.3826709 1.02094727 6.7653418 1.03173828 9.22021484 C1.06482947 17.079238 1.08695022 24.93826419 1.10362434 32.79733849 C1.11407612 37.56382294 1.12826064 42.33023621 1.15087891 47.09667969 C1.17255773 51.69374927 1.18455812 56.29075024 1.18975449 60.88786697 C1.19345919 62.64460964 1.20069322 64.40134841 1.21146011 66.15806198 C1.22590924 68.61245688 1.22798073 71.06656573 1.22705078 73.52099609 C1.23424133 74.25251389 1.24143188 74.98403168 1.24884033 75.73771667 C1.22810432 80.77189568 1.22810432 80.77189568 -1 83 C-1.02312328 72.32580302 -1.04091501 61.65161194 -1.05181217 50.97739506 C-1.05704103 46.02146078 -1.06413874 41.06554358 -1.07543945 36.10961914 C-1.08626822 31.33101164 -1.09227681 26.55242062 -1.09487724 21.7738018 C-1.09673151 19.94646381 -1.10035216 18.11912676 -1.10573006 16.29179573 C-1.11294036 13.74146671 -1.11399095 11.19120663 -1.11352539 8.64086914 C-1.11712067 7.87770386 -1.12071594 7.11453857 -1.12442017 6.32824707 C-1.11405216 1.11405216 -1.11405216 1.11405216 0 0 Z " fill="#30DF79" transform="translate(612,447)"/>
<path d="M0 0 C0.66 0 1.32 0 2 0 C2.11754639 0.59570801 2.23509277 1.19141602 2.35620117 1.80517578 C6.80431868 27.9371172 6.80431868 27.9371172 19 51 C18.67 51.66 18.34 52.32 18 53 C7.26991557 40.46313159 3.99459107 23.85180272 1 8 C0.34 8 -0.32 8 -1 8 C-1.03810791 8.59353271 -1.07621582 9.18706543 -1.11547852 9.79858398 C-1.65103123 16.48876322 -3.04594454 22.63484031 -4.9375 29.0625 C-5.20240234 30.01060547 -5.46730469 30.95871094 -5.74023438 31.93554688 C-7.23519411 37.11040748 -7.23519411 37.11040748 -8 39 C-8.99 39.495 -8.99 39.495 -10 40 C-9.82984375 39.3915625 -9.6596875 38.783125 -9.484375 38.15625 C-6.36799376 26.88423275 -3.26229292 15.59474682 -1.39453125 4.0390625 C-1 2 -1 2 0 0 Z " fill="#33BD6B" transform="translate(197,424)"/>
<path d="M0 0 C0.33 0.66 0.66 1.32 1 2 C0.69720123 2.59532532 0.39440247 3.19065063 0.08242798 3.80401611 C-1.20504222 6.41598095 -1.27573176 8.23260484 -1.31884766 11.13574219 C-1.33871735 12.15649841 -1.35858704 13.17725464 -1.37905884 14.22894287 C-1.39061005 15.32386047 -1.40216125 16.41877808 -1.4140625 17.546875 C-1.43342865 18.6732135 -1.4527948 19.799552 -1.4727478 20.96002197 C-1.53251521 24.55660434 -1.57891819 28.15321876 -1.625 31.75 C-1.66318234 34.18881602 -1.70223422 36.6276186 -1.7421875 39.06640625 C-1.83821466 45.04416158 -1.92225667 51.02198005 -2 57 C-8.93 57 -15.86 57 -23 57 C-23 56.67 -23 56.34 -23 56 C-21.35 56 -19.7 56 -18 56 C-18 55.34 -18 54.68 -18 54 C-15.36 54 -12.72 54 -10 54 C-10 54.66 -10 55.32 -10 56 C-8.02 56 -6.04 56 -4 56 C-4.00785522 54.69518677 -4.00785522 54.69518677 -4.01586914 53.36401367 C-4.16838455 24.13704149 -4.16838455 24.13704149 -3.6875 12.8125 C-3.66502197 12.07346436 -3.64254395 11.33442871 -3.61938477 10.57299805 C-3.39429797 6.28001606 -2.52534147 3.48673152 0 0 Z " fill="#2BC168" transform="translate(634,496)"/>
<path d="M0 0 C2.35110942 2.1206085 3.59620933 3.90715131 4.6875 6.875 C4.93886719 7.53242188 5.19023437 8.18984375 5.44921875 8.8671875 C6.08003231 11.30991237 6.03656216 13.48628698 6 16 C2.12660021 16.29160411 -1.7439852 16.46832697 -5.625 16.625 C-7.26662109 16.75068359 -7.26662109 16.75068359 -8.94140625 16.87890625 C-12.23403929 16.97868301 -14.83719003 16.9399289 -18 16 C-20.83191082 12.99744319 -22.36223855 9.75335862 -24 6 C-24.66 5.01 -25.32 4.02 -26 3 C-22.1281583 4.25573244 -19.97161329 5.36808079 -18 9 C-18 10.65 -18 12.3 -18 14 C-10.74 13.67 -3.48 13.34 4 13 C3.34 11.22625 2.68 9.4525 2 7.625 C0 2.25 0 2.25 0 0 Z " fill="#30BC68" transform="translate(426,469)"/>
<path d="M0 0 C0.391875 0.556875 0.78375 1.11375 1.1875 1.6875 C9.16019945 11.85956482 18.70052443 13.69056789 31 16 C31 16.33 31 16.66 31 17 C20.5670864 16.97352052 11.83971467 16.25963212 3 10 C0.55022212 7.30207651 0.02706062 6.46905074 -0.1875 2.75 C-0.125625 1.8425 -0.06375 0.935 0 0 Z " fill="#2ED473" transform="translate(861,504)"/>
<path d="M0 0 C-0.61875 0.0825 -1.2375 0.165 -1.875 0.25 C-4.15239318 0.77417537 -4.15239318 0.77417537 -4.8828125 2.8125 C-6.21553241 5.4220215 -7.78543389 6.8448218 -10 8.75 C-11.051875 9.67039062 -11.051875 9.67039062 -12.125 10.609375 C-14 12 -14 12 -16 12 C-17.00926479 16.15626368 -17.10239579 20.04365094 -17.0625 24.3125 C-17.05347656 25.56675781 -17.04445313 26.82101562 -17.03515625 28.11328125 C-17.02355469 29.06589844 -17.01195312 30.01851563 -17 31 C-19.7241562 28.2758438 -19.3308802 26.6781266 -19.375 22.875 C-19.23319204 15.72157641 -18.09577038 11.19727104 -13.09375 6.03125 C-4.7355 -1.5785 -4.7355 -1.5785 0 0 Z " fill="#2FC36B" transform="translate(878,477)"/>
<path d="M0 0 C2 3 2 3 2 5 C2.66 5 3.32 5 4 5 C4.83819158 6.62249941 5.6704116 8.24808497 6.5 9.875 C6.9640625 10.77992188 7.428125 11.68484375 7.90625 12.6171875 C9 15 9 15 9 17 C9.66 17 10.32 17 11 17 C12.2890625 18.75 12.2890625 18.75 13.625 21 C14.07101562 21.7425 14.51703125 22.485 14.9765625 23.25 C15.48316406 24.11625 15.48316406 24.11625 16 25 C13 25 13 25 11.1328125 23.19921875 C5.69911608 16.40181253 0 9.00877441 0 0 Z " fill="#2EC56B" transform="translate(335,519)"/>
<path d="M0 0 C6.75495956 6.75495956 7.40768001 22.7114667 9 32 C9.33 30.02 9.66 28.04 10 26 C10.33 26 10.66 26 11 26 C11.14285714 34.57142857 11.14285714 34.57142857 10 38 C9.34 38 8.68 38 8 38 C7.04050546 33.54191577 6.08261726 29.08348782 5.125 24.625 C4.85558594 23.37332031 4.58617187 22.12164063 4.30859375 20.83203125 C2.82010842 13.8978679 1.36276145 6.96003503 0 0 Z " fill="#2FBA67" transform="translate(189,534)"/>
<path d="M0 0 C0.515625 0.495 1.03125 0.99 1.5625 1.5 C4.80680017 3.49649241 7.26217334 3.21564385 11 3 C11.33 2.34 11.66 1.68 12 1 C11.8125 2.875 11.8125 2.875 11 5 C4.73497457 8.79698511 -2.3044061 7.0356199 -9 5.5 C-11.00212297 5.00856982 -13.00289812 4.51145292 -15 4 C-15 3.67 -15 3.34 -15 3 C-9.39 3.33 -3.78 3.66 2 4 C1.34 2.68 0.68 1.36 0 0 Z " fill="#31E37D" transform="translate(260,488)"/>
<path d="M0 0 C10.02956664 0.92866358 19.23543284 3.2082146 27 10 C27.33 10.99 27.66 11.98 28 13 C25.61729429 11.82038461 23.25492105 10.61056956 20.8984375 9.37890625 C14.05441864 5.85067036 7.53026927 2.82183934 0 1 C0 0.67 0 0.34 0 0 Z " fill="#36DE7A" transform="translate(147,502)"/>
<path d="M0 0 C0 0.33 0 0.66 0 1 C-1.64935547 1.03867187 -1.64935547 1.03867187 -3.33203125 1.078125 C-18.25075246 1.51736169 -18.25075246 1.51736169 -30.9375 8.6875 C-31.618125 9.450625 -32.29875 10.21375 -33 11 C-35.3125 11.8125 -35.3125 11.8125 -37 12 C-37 10 -37 10 -35.63671875 8.6328125 C-24.69296044 0.16730006 -13.46316472 -1.58246963 0 0 Z " fill="#31BB67" transform="translate(485,474)"/>
<path d="M0 0 C4.72885297 2.26893268 4.72885297 2.26893268 5.92578125 5.49609375 C6.87367098 12.70580051 7.23205906 19.7288162 7 27 C6.34 27 5.68 27 5 27 C4.45125058 23.09016037 3.9813521 19.51281727 4.125 15.5625 C3.96437515 10.98469179 2.59160593 7.25527803 1 3 C0.67 2.01 0.34 1.02 0 0 Z " fill="#30E17B" transform="translate(676,485)"/>
<path d="M0 0 C0.69738281 0.00451172 1.39476562 0.00902344 2.11328125 0.01367188 C3.82555803 0.0253998 5.53779033 0.04333347 7.25 0.0625 C7.25 0.3925 7.25 0.7225 7.25 1.0625 C6.06664062 1.14886719 4.88328125 1.23523438 3.6640625 1.32421875 C-7.02524165 2.22865485 -14.7210044 4.0431696 -23.75 10.0625 C-22.2938453 6.22577778 -20.53641047 5.09705804 -16.875 3.375 C-16.01132812 2.95863281 -15.14765625 2.54226563 -14.2578125 2.11328125 C-9.43871435 0.09406411 -5.1958895 -0.06384363 0 0 Z M-26.75 10.0625 C-26.09 10.7225 -25.43 11.3825 -24.75 12.0625 C-26.07 13.0525 -27.39 14.0425 -28.75 15.0625 C-28.09 13.4125 -27.43 11.7625 -26.75 10.0625 Z " fill="#33E97E" transform="translate(475.75,474.9375)"/>
<path d="M0 0 C-2.49291673 1.66194449 -4.06094134 2.4278766 -6.8125 3.3125 C-11.03192978 4.81999425 -13.65982649 7.05746619 -17 10 C-17.66 10 -18.32 10 -19 10 C-19 10.66 -19 11.32 -19 12 C-19.66 11.67 -20.32 11.34 -21 11 C-18.62590897 5.80667587 -14.9417012 3.49512222 -10 1 C-6.61521828 -0.0233061 -3.52566459 -0.10073327 0 0 Z " fill="#31D775" transform="translate(724,476)"/>
<path d="M0 0 C0.33 0.66 0.66 1.32 1 2 C2.65 2 4.3 2 6 2 C6.33 2.66 6.66 3.32 7 4 C6.06553465 6.03144641 5.06775224 8.03533587 4 10 C3.67 9.34 3.34 8.68 3 8 C3.33 7.01 3.66 6.02 4 5 C-1.94 4.67 -7.88 4.34 -14 4 C-10.57905758 1.71937172 -9.31812778 1.78074993 -5.3125 1.875 C-3.82169922 1.90207031 -3.82169922 1.90207031 -2.30078125 1.9296875 C-1.54152344 1.95289063 -0.78226563 1.97609375 0 2 C0 1.34 0 0.68 0 0 Z " fill="#2EB965" transform="translate(761,528)"/>
<path d="M0 0 C1.04285156 -0.01675781 2.08570313 -0.03351563 3.16015625 -0.05078125 C5.9375 0.3125 5.9375 0.3125 7.80859375 1.83203125 C8.36740234 2.56486328 8.36740234 2.56486328 8.9375 3.3125 C8.23238281 3.14878906 7.52726562 2.98507812 6.80078125 2.81640625 C3.84091312 2.29550176 1.12688727 2.21383268 -1.875 2.25 C-2.85082031 2.25902344 -3.82664062 2.26804687 -4.83203125 2.27734375 C-5.56808594 2.28894531 -6.30414063 2.30054688 -7.0625 2.3125 C-7.0625 2.9725 -7.0625 3.6325 -7.0625 4.3125 C-8.8125 5.6015625 -8.8125 5.6015625 -11.0625 6.9375 C-11.805 7.38351562 -12.5475 7.82953125 -13.3125 8.2890625 C-13.89 8.62679688 -14.4675 8.96453125 -15.0625 9.3125 C-15.0625 8.3225 -15.0625 7.3325 -15.0625 6.3125 C-10.20683248 1.86147144 -6.59019154 0.02449885 0 0 Z " fill="#31DE78" transform="translate(476.0625,487.6875)"/>
<path d="M0 0 C0.76849965 2.25542675 1.15628879 3.53906176 0.37915039 5.83105469 C0.03875732 6.43852539 -0.30163574 7.04599609 -0.65234375 7.671875 C-1.01650391 8.33574219 -1.38066406 8.99960937 -1.75585938 9.68359375 C-2.14580078 10.36550781 -2.53574219 11.04742187 -2.9375 11.75 C-3.32357422 12.44738281 -3.70964844 13.14476562 -4.10742188 13.86328125 C-5.06073637 15.5816012 -6.02895346 17.29163804 -7 19 C-7.33 19 -7.66 19 -8 19 C-8.52121824 13.64122498 -6.89970226 10.4549608 -4 6.125 C-3.6184375 5.53203125 -3.236875 4.9390625 -2.84375 4.328125 C-1.90790125 2.87755944 -0.95558369 1.43764153 0 0 Z " fill="#35D776" transform="translate(110,441)"/>
<path d="M0 0 C-0.65226563 0.30292969 -1.30453125 0.60585938 -1.9765625 0.91796875 C-7.27972895 3.46004706 -11.67212586 6.01380014 -16 10 C-14.76549745 5.06198981 -13.37060927 2.68196478 -9 0 C-5.34537835 -0.95020163 -3.60034099 -1.20011366 0 0 Z " fill="#2FD976" transform="translate(648,477)"/>
<path d="M0 0 C2.13973019 2.13973019 4.25717943 4.27803182 6.3125 6.5 C9.37605371 9.3498174 12.31353194 11.04834044 16 13 C13 14 13 14 11.09765625 13.36328125 C3.54800255 9.46528347 3.54800255 9.46528347 1 6 C0.25 2.75 0.25 2.75 0 0 Z " fill="#2FC069" transform="translate(359,522)"/>
<path d="M0 0 C0.66 0.66 1.32 1.32 2 2 C0.63875 1.938125 0.63875 1.938125 -0.75 1.875 C-3.8782046 1.99531556 -5.38614006 2.3914708 -8 4 C-8.11320856 9.08303686 -8.11320856 9.08303686 -7 14 C-7.66 14 -8.32 14 -9 14 C-10.02394907 11.00641642 -10.81459246 8.16782029 -11 5 C-8.00152765 0.40858922 -5.41549235 -0.84240992 0 0 Z " fill="#32BD6C" transform="translate(259,525)"/>
<path d="M0 0 C4.82630375 0.50840885 7.8601092 1.86958544 11.875 4.5625 C12.84179688 5.20316406 13.80859375 5.84382813 14.8046875 6.50390625 C15.52914063 6.99761719 16.25359375 7.49132812 17 8 C16.01 8.66 15.02 9.32 14 10 C14 9.34 14 8.68 14 8 C12.5459375 7.5978125 12.5459375 7.5978125 11.0625 7.1875 C10.051875 6.795625 9.04125 6.40375 8 6 C7.67 5.01 7.34 4.02 7 3 C3.48809191 1.77030122 3.48809191 1.77030122 0 1 C0 0.67 0 0.34 0 0 Z " fill="#30C56A" transform="translate(399,448)"/>
<path d="M0 0 C5.70656702 0.58230276 11.55855884 1.2387731 15.55078125 5.75390625 C16.77044897 7.4545697 17.89382862 9.22342172 19 11 C16.60495243 9.93553441 14.85327176 8.87053391 12.875 7.125 C8.91445821 4.19764302 4.6017892 2.67987645 0 1 C0 0.67 0 0.34 0 0 Z " fill="#30E47B" transform="translate(484,476)"/>
<path d="M0 0 C0.8971875 0.309375 0.8971875 0.309375 1.8125 0.625 C1.22082031 1.08390625 0.62914062 1.5428125 0.01953125 2.015625 C-4.07129822 5.19219079 -8.15568271 8.37353444 -12.1875 11.625 C-10.22447355 6.98511929 -5.71242461 -0.97927279 0 0 Z " fill="#35DD7B" transform="translate(228.1875,507.375)"/>
<path d="M0 0 C3.21043882 1.38188453 5.04936365 2.92421903 7.25 5.625 C7.77078125 6.25664062 8.2915625 6.88828125 8.828125 7.5390625 C9.40820312 8.26222656 9.40820312 8.26222656 10 9 C9.67 9.66 9.34 10.32 9 11 C5.66666667 7.66666667 2.33333333 4.33333333 -1 1 C-0.67 0.67 -0.34 0.34 0 0 Z " fill="#2DC46A" transform="translate(914,479)"/>
<path d="M0 0 C1.88671875 0.6640625 1.88671875 0.6640625 4 2 C5.08203125 4.4609375 5.08203125 4.4609375 5.8125 7.375 C6.06644531 8.33148437 6.32039062 9.28796875 6.58203125 10.2734375 C6.99088085 12.94051248 6.87707028 14.48215199 6 17 C5.18457569 14.91780951 4.37276811 12.83420239 3.5625 10.75 C3.11003906 9.58984375 2.65757812 8.4296875 2.19140625 7.234375 C1.29849367 4.81033692 0.54205635 2.51713525 0 0 Z " fill="#35DC7A" transform="translate(184,527)"/>
<path d="M0 0 C2.171875 0.921875 2.171875 0.921875 4 2 C2.40233897 2.86627399 0.79660056 3.71766465 -0.8125 4.5625 C-1.70582031 5.03816406 -2.59914062 5.51382813 -3.51953125 6.00390625 C-6 7 -6 7 -9 6 C-7.68 5.67 -6.36 5.34 -5 5 C-5 4.34 -5 3.68 -5 3 C-2.75 1.25 -2.75 1.25 0 0 Z " fill="#28B760" transform="translate(243,593)"/>
<path d="M0 0 C2.25 0.875 2.25 0.875 3.25 2.875 C0.94 2.875 -1.37 2.875 -3.75 2.875 C-3.87375 3.65875 -3.9975 4.4425 -4.125 5.25 C-4.75 7.875 -4.75 7.875 -6.75 9.875 C-7.75 8.875 -7.75 8.875 -8.125 6.5625 C-7.75 3.875 -7.75 3.875 -5.5625 1.5 C-2.75 -0.125 -2.75 -0.125 0 0 Z " fill="#2FBB69" transform="translate(236.75,551.125)"/>
<path d="M0 0 C3.67056937 1.47797262 5.41085783 3.47615477 7.75 6.625 C8.67039063 7.85089844 8.67039063 7.85089844 9.609375 9.1015625 C10.29773438 10.04128906 10.29773438 10.04128906 11 11 C10.67 11.66 10.34 12.32 10 13 C6.70109332 9.8794126 4.19531872 6.97248149 2 3 C1.34 2.01 0.68 1.02 0 0 Z " fill="#33C66E" transform="translate(174,513)"/>
<path d="M0 0 C0 0.33 0 0.66 0 1 C-5.94 1.495 -5.94 1.495 -12 2 C-12.33 2.99 -12.66 3.98 -13 5 C-14.65 5.33 -16.3 5.66 -18 6 C-17 3 -17 3 -14.0625 1.3125 C-9.46349544 -0.52710182 -4.87368665 -0.26476769 0 0 Z " fill="#32DE78" transform="translate(736,488)"/>
<path d="M0 0 C0.61328125 1.828125 0.61328125 1.828125 1 4 C-0.8125 6.75 -0.8125 6.75 -3 9 C-3.66 9 -4.32 9 -5 9 C-5.66 10.32 -6.32 11.64 -7 13 C-6.65986985 7.55791766 -3.29703472 4.06331802 0 0 Z " fill="#31CA6F" transform="translate(345,463)"/>
<path d="M0 0 C0.33 0 0.66 0 1 0 C0.67 2.31 0.34 4.62 0 7 C-0.66 7 -1.32 7 -2 7 C-2.33 8.98 -2.66 10.96 -3 13 C-3.33 13 -3.66 13 -4 13 C-3.56407724 7.85611138 -3.18386087 4.24514783 0 0 Z " fill="#32D979" transform="translate(358,479)"/>
<path d="M0 0 C0.33 0.66 0.66 1.32 1 2 C0.00390625 4.1640625 0.00390625 4.1640625 -1.4375 6.625 C-1.91058594 7.44226563 -2.38367188 8.25953125 -2.87109375 9.1015625 C-3.24363281 9.72804688 -3.61617188 10.35453125 -4 11 C-5 9 -5 9 -4.51171875 7.08984375 C-4.10373047 6.02443359 -4.10373047 6.02443359 -3.6875 4.9375 C-3.42324219 4.22464844 -3.15898437 3.51179687 -2.88671875 2.77734375 C-2 1 -2 1 0 0 Z " fill="#30BE67" transform="translate(291,546)"/>
<path d="M0 0 C1 3 1 3 -0.125 5.5 C-2.16131229 8.21508305 -4.00479488 9.46192169 -7 11 C-5.79618552 8.50638429 -4.54571278 6.31856917 -3 4 C-2.34 4 -1.68 4 -1 4 C-0.67 2.68 -0.34 1.36 0 0 Z " fill="#2ECB6D" transform="translate(596,533)"/>
<path d="M0 0 C0.6875 1.6875 0.6875 1.6875 1 4 C-0.25 6.6875 -0.25 6.6875 -2 9 C-2.99 9.33 -3.98 9.66 -5 10 C-3.66511872 6.40608886 -2.03977277 3.24509304 0 0 Z " fill="#35C96F" transform="translate(110,441)"/>
<path d="M0 0 C3.3 0 6.6 0 10 0 C10 0.33 10 0.66 10 1 C6.04 1.99 2.08 2.98 -2 4 C-1.34 2.68 -0.68 1.36 0 0 Z " fill="#31DB78" transform="translate(553,476)"/>
<path d="M0 0 C0.66 0.33 1.32 0.66 2 1 C0.6875 3.5 0.6875 3.5 -1 6 C-1.99 6 -2.98 6 -4 6 C-4.33 5.34 -4.66 4.68 -5 4 C-3.35 2.68 -1.7 1.36 0 0 Z " fill="#2FC96D" transform="translate(353,455)"/>
<path d="M0 0 C3.65316671 1.24976756 4.78065836 1.67098753 7 5 C4.69 4.67 2.38 4.34 0 4 C0 2.68 0 1.36 0 0 Z " fill="#33C96F" transform="translate(253,412)"/>
<path d="M0 0 C0.66 1.32 1.32 2.64 2 4 C1.01 4.99 0.02 5.98 -1 7 C-1.99 6.67 -2.98 6.34 -4 6 C-2.68 4.02 -1.36 2.04 0 0 Z " fill="#2CCA6C" transform="translate(576,528)"/>
<path d="M0 0 C0 3 0 3 -2.375 5.6875 C-5 8 -5 8 -7 8 C-5.61918777 3.8575633 -3.40174442 2.67796901 0 0 Z " fill="#2CDE76" transform="translate(404,528)"/>
<path d="M0 0 C0.33 0.66 0.66 1.32 1 2 C0.06553465 4.03144641 -0.93224776 6.03533587 -2 8 C-2.66 7.67 -3.32 7.34 -4 7 C-2.92598892 4.08482708 -2.22189824 2.22189824 0 0 Z " fill="#30CA6F" transform="translate(447,486)"/>
<path d="M0 0 C0.66 0.33 1.32 0.66 2 1 C0.515 3.475 0.515 3.475 -1 6 C-1.99 5.34 -2.98 4.68 -4 4 C-2.68 2.68 -1.36 1.36 0 0 Z " fill="#2ECC6E" transform="translate(550,478)"/>
<path d="M0 0 C1 2 1 2 0.44140625 3.9453125 C0.15136719 4.66460937 -0.13867188 5.38390625 -0.4375 6.125 C-0.72496094 6.84945313 -1.01242188 7.57390625 -1.30859375 8.3203125 C-1.53675781 8.87460937 -1.76492187 9.42890625 -2 10 C-2.33 10 -2.66 10 -3 10 C-3 7.69 -3 5.38 -3 3 C-2.34 3 -1.68 3 -1 3 C-0.67 2.01 -0.34 1.02 0 0 Z " fill="#36E07C" transform="translate(101,461)"/>
<path d="M0 0 C6.52307692 0.61538462 6.52307692 0.61538462 8.9375 2.5625 C9.288125 3.036875 9.63875 3.51125 10 4 C8.72125 3.71125 7.4425 3.4225 6.125 3.125 C5.40570313 2.96257812 4.68640625 2.80015625 3.9453125 2.6328125 C2 2 2 2 0 0 Z " fill="#34C96F" transform="translate(243,408)"/>
<path d="M0 0 C1.65 0 3.3 0 5 0 C5 0.33 5 0.66 5 1 C3.35 1 1.7 1 0 1 C0 0.67 0 0.34 0 0 Z " fill="#35C46F" transform="translate(419,486)"/>
<path d="M0 0 C1 4 1 4 1 4 Z " fill="#33C36E" transform="translate(660,532)"/>
<path d="M0 0 C0.99 0.495 0.99 0.495 2 1 C1.67 1.66 1.34 2.32 1 3 C0.67 2.01 0.34 1.02 0 0 Z " fill="#36C972" transform="translate(434,515)"/>
<path d="M0 0 C1 4 1 4 1 4 Z " fill="#33CA73" transform="translate(660,508)"/>
<path d="M0 0 C1 4 1 4 1 4 Z " fill="#36C06F" transform="translate(90,506)"/>
<path d="M0 0 C4 1 4 1 4 1 Z " fill="#36C973" transform="translate(384,469)"/>
<path d="" fill="#35C872" transform="translate(0,0)"/>
<path d="" fill="#35CA73" transform="translate(0,0)"/>
<path d="M0 0 C0.66 0.66 1.32 1.32 2 2 C1.34 2 0.68 2 0 2 C0 1.34 0 0.68 0 0 Z " fill="#33C772" transform="translate(859,509)"/>
<path d="" fill="#38C170" transform="translate(0,0)"/>
<path d="" fill="#38CB75" transform="translate(0,0)"/>
<path d="" fill="#37C26E" transform="translate(0,0)"/>
<path d="M0 0 C0.66 0 1.32 0 2 0 C1.67 0.66 1.34 1.32 1 2 C0.67 1.34 0.34 0.68 0 0 Z " fill="#35CA74" transform="translate(372,470)"/>
<path d="M0 0 C2 1 2 1 2 1 Z " fill="#2DB564" transform="translate(219,606)"/>
<path d="" fill="#30A860" transform="translate(0,0)"/>
<path d="M0 0 C2 1 2 1 2 1 Z " fill="#33A85E" transform="translate(523,583)"/>
<path d="" fill="#2EB464" transform="translate(0,0)"/>
<path d="M0 0 C2 1 2 1 2 1 Z " fill="#30B464" transform="translate(731,558)"/>
<path d="M0 0 C2 1 2 1 2 1 Z " fill="#32B667" transform="translate(480,557)"/>
<path d="M0 0 C2 1 2 1 2 1 Z " fill="#30B866" transform="translate(838,555)"/>
<path d="M0 0 C2 1 2 1 2 1 Z " fill="#32B565" transform="translate(678,555)"/>
<path d="M0 0 C2 1 2 1 2 1 Z " fill="#32B666" transform="translate(671,555)"/>
<path d="M0 0 C2 1 2 1 2 1 Z " fill="#33B266" transform="translate(610,555)"/>
<path d="M0 0 C2 1 2 1 2 1 Z " fill="#33B465" transform="translate(659,552)"/>
<path d="" fill="#31B767" transform="translate(0,0)"/>
<path d="" fill="#34C571" transform="translate(0,0)"/>
<path d="M0 0 C2 1 2 1 2 1 Z " fill="#30C06C" transform="translate(858,541)"/>
<path d="" fill="#31BD6B" transform="translate(0,0)"/>
<path d="" fill="#32BC6C" transform="translate(0,0)"/>
<path d="M0 0 C2 1 2 1 2 1 Z " fill="#36C572" transform="translate(736,536)"/>
<path d="" fill="#31C570" transform="translate(0,0)"/>
<path d="" fill="#32C770" transform="translate(0,0)"/>
<path d="" fill="#35C870" transform="translate(0,0)"/>
<path d="" fill="#37BF6E" transform="translate(0,0)"/>
<path d="" fill="#35CA74" transform="translate(0,0)"/>
<path d="" fill="#36CD74" transform="translate(0,0)"/>
<path d="" fill="#31B567" transform="translate(0,0)"/>
<path d="" fill="#31CB73" transform="translate(0,0)"/>
<path d="" fill="#38C773" transform="translate(0,0)"/>
<path d="M0 0 C2 1 2 1 2 1 Z " fill="#36CC76" transform="translate(549,498)"/>
<path d="" fill="#39D47C" transform="translate(0,0)"/>
<path d="" fill="#35CB71" transform="translate(0,0)"/>
<path d="M0 0 C2 1 2 1 2 1 Z " fill="#34CC74" transform="translate(739,494)"/>
<path d="M0 0 C2 1 2 1 2 1 Z " fill="#38D67C" transform="translate(148,494)"/>
<path d="M0 0 C2 1 2 1 2 1 Z " fill="#35C972" transform="translate(642,493)"/>
<path d="M0 0 C2 1 2 1 2 1 Z " fill="#38D37A" transform="translate(238,492)"/>
<path d="M0 0 C2 1 2 1 2 1 Z " fill="#34C471" transform="translate(427,486)"/>
<path d="M0 0 C2 1 2 1 2 1 Z " fill="#35C470" transform="translate(411,486)"/>
<path d="" fill="#35C875" transform="translate(0,0)"/>
<path d="M0 0 C2 1 2 1 2 1 Z " fill="#38D078" transform="translate(213,479)"/>
<path d="" fill="#39C170" transform="translate(0,0)"/>
<path d="M0 0 C2 1 2 1 2 1 Z " fill="#35C573" transform="translate(649,472)"/>
<path d="M0 0 C2 1 2 1 2 1 Z " fill="#35C070" transform="translate(569,472)"/>
<path d="M0 0 C2 1 2 1 2 1 Z " fill="#34CB76" transform="translate(376,469)"/>
<path d="" fill="#39CA75" transform="translate(0,0)"/>
<path d="M0 0 C2 1 2 1 2 1 Z " fill="#36C072" transform="translate(198,394)"/>
<path d="" fill="#15211B" transform="translate(0,0)"/>
<path d="" fill="#132119" transform="translate(0,0)"/>
<path d="" fill="#15221A" transform="translate(0,0)"/>
<path d="" fill="#142118" transform="translate(0,0)"/>
<path d="" fill="#14221B" transform="translate(0,0)"/>
<path d="" fill="#15231A" transform="translate(0,0)"/>
<path d="" fill="#16201A" transform="translate(0,0)"/>
<path d="" fill="#15211A" transform="translate(0,0)"/>
<path d="" fill="#142119" transform="translate(0,0)"/>
<path d="" fill="#152219" transform="translate(0,0)"/>
<path d="" fill="#15221A" transform="translate(0,0)"/>
<path d="" fill="#162319" transform="translate(0,0)"/>
<path d="" fill="#15231B" transform="translate(0,0)"/>
<path d="" fill="#15221B" transform="translate(0,0)"/>
<path d="" fill="#16221B" transform="translate(0,0)"/>
<path d="" fill="#15221B" transform="translate(0,0)"/>
<path d="" fill="#15221A" transform="translate(0,0)"/>
<path d="" fill="#152319" transform="translate(0,0)"/>
<path d="" fill="#16221B" transform="translate(0,0)"/>
<path d="" fill="#15231A" transform="translate(0,0)"/>
<path d="" fill="#16221A" transform="translate(0,0)"/>
<path d="" fill="#15221B" transform="translate(0,0)"/>
<path d="" fill="#16241B" transform="translate(0,0)"/>
<path d="" fill="#14221B" transform="translate(0,0)"/>
<path d="" fill="#16221C" transform="translate(0,0)"/>
<path d="" fill="#15211A" transform="translate(0,0)"/>
<path d="" fill="#15211A" transform="translate(0,0)"/>
<path d="" fill="#15231B" transform="translate(0,0)"/>
<path d="" fill="#15251C" transform="translate(0,0)"/>
<path d="" fill="#15221A" transform="translate(0,0)"/>
<path d="" fill="#16231A" transform="translate(0,0)"/>
<path d="" fill="#16231B" transform="translate(0,0)"/>
<path d="" fill="#16231A" transform="translate(0,0)"/>
<path d="" fill="#17241B" transform="translate(0,0)"/>
<path d="" fill="#16231A" transform="translate(0,0)"/>
<path d="" fill="#16231A" transform="translate(0,0)"/>
<path d="" fill="#17251C" transform="translate(0,0)"/>
<path d="" fill="#17231C" transform="translate(0,0)"/>
<path d="" fill="#17271D" transform="translate(0,0)"/>
<path d="" fill="#16271E" transform="translate(0,0)"/>
<path d="" fill="#19261E" transform="translate(0,0)"/>
<path d="" fill="#14231B" transform="translate(0,0)"/>
<path d="" fill="#18271E" transform="translate(0,0)"/>
<path d="" fill="#192C20" transform="translate(0,0)"/>
<path d="" fill="#1A2E21" transform="translate(0,0)"/>
<path d="" fill="#1C3223" transform="translate(0,0)"/>
<path d="" fill="#1D3524" transform="translate(0,0)"/>
<path d="" fill="#1C3121" transform="translate(0,0)"/>
<path d="" fill="#1C3122" transform="translate(0,0)"/>
<path d="" fill="#1B3223" transform="translate(0,0)"/>
<path d="" fill="#1D3224" transform="translate(0,0)"/>
<path d="" fill="#1D3525" transform="translate(0,0)"/>
<path d="" fill="#1C3524" transform="translate(0,0)"/>
<path d="" fill="#1C3325" transform="translate(0,0)"/>
<path d="" fill="#1D3324" transform="translate(0,0)"/>
<path d="" fill="#23442E" transform="translate(0,0)"/>
<path d="" fill="#21412B" transform="translate(0,0)"/>
<path d="" fill="#21432C" transform="translate(0,0)"/>
<path d="" fill="#295D3A" transform="translate(0,0)"/>
<path d="" fill="#234D32" transform="translate(0,0)"/>
<path d="" fill="#255235" transform="translate(0,0)"/>
<path d="" fill="#265035" transform="translate(0,0)"/>
<path d="" fill="#265336" transform="translate(0,0)"/>
<path d="" fill="#275536" transform="translate(0,0)"/>
<path d="" fill="#264D34" transform="translate(0,0)"/>
<path d="" fill="#295E3B" transform="translate(0,0)"/>
<path d="" fill="#2DB464" transform="translate(0,0)"/>
<path d="" fill="#2EB360" transform="translate(0,0)"/>
<path d="" fill="#2FB164" transform="translate(0,0)"/>
<path d="" fill="#2EB364" transform="translate(0,0)"/>
<path d="" fill="#2FB765" transform="translate(0,0)"/>
<path d="" fill="#33B366" transform="translate(0,0)"/>
<path d="" fill="#30B564" transform="translate(0,0)"/>
<path d="" fill="#31B164" transform="translate(0,0)"/>
<path d="" fill="#32A65D" transform="translate(0,0)"/>
<path d="" fill="#32AA60" transform="translate(0,0)"/>
<path d="" fill="#30B466" transform="translate(0,0)"/>
<path d="" fill="#2EBB65" transform="translate(0,0)"/>
<path d="" fill="#33B466" transform="translate(0,0)"/>
<path d="" fill="#31B868" transform="translate(0,0)"/>
<path d="" fill="#32B768" transform="translate(0,0)"/>
<path d="" fill="#33B467" transform="translate(0,0)"/>
<path d="" fill="#32BA68" transform="translate(0,0)"/>
<path d="" fill="#31B766" transform="translate(0,0)"/>
<path d="" fill="#34BC67" transform="translate(0,0)"/>
<path d="" fill="#31BC6B" transform="translate(0,0)"/>
<path d="" fill="#32B265" transform="translate(0,0)"/>
<path d="" fill="#33B969" transform="translate(0,0)"/>
<path d="" fill="#32B666" transform="translate(0,0)"/>
<path d="" fill="#30B465" transform="translate(0,0)"/>
<path d="" fill="#2EB565" transform="translate(0,0)"/>
<path d="" fill="#30B262" transform="translate(0,0)"/>
<path d="" fill="#2EB465" transform="translate(0,0)"/>
<path d="" fill="#2FB265" transform="translate(0,0)"/>
<path d="" fill="#2EB561" transform="translate(0,0)"/>
<path d="" fill="#30B968" transform="translate(0,0)"/>
<path d="" fill="#31B666" transform="translate(0,0)"/>
<path d="" fill="#35BA68" transform="translate(0,0)"/>
<path d="" fill="#33B266" transform="translate(0,0)"/>
<path d="" fill="#36B667" transform="translate(0,0)"/>
<path d="" fill="#31B266" transform="translate(0,0)"/>
<path d="" fill="#33B565" transform="translate(0,0)"/>
<path d="" fill="#31B665" transform="translate(0,0)"/>
<path d="" fill="#31B466" transform="translate(0,0)"/>
<path d="" fill="#32B869" transform="translate(0,0)"/>
<path d="" fill="#31B765" transform="translate(0,0)"/>
<path d="" fill="#33B466" transform="translate(0,0)"/>
<path d="" fill="#2FB566" transform="translate(0,0)"/>
<path d="" fill="#30B365" transform="translate(0,0)"/>
<path d="" fill="#31B664" transform="translate(0,0)"/>
<path d="" fill="#32B365" transform="translate(0,0)"/>
<path d="" fill="#31B566" transform="translate(0,0)"/>
<path d="" fill="#33B163" transform="translate(0,0)"/>
<path d="" fill="#34BD6D" transform="translate(0,0)"/>
<path d="" fill="#33B769" transform="translate(0,0)"/>
<path d="" fill="#31B867" transform="translate(0,0)"/>
<path d="" fill="#36BB69" transform="translate(0,0)"/>
<path d="" fill="#33BD6D" transform="translate(0,0)"/>
<path d="" fill="#30B568" transform="translate(0,0)"/>
<path d="" fill="#38CF77" transform="translate(0,0)"/>
<path d="" fill="#2CAA60" transform="translate(0,0)"/>
<path d="" fill="#31B969" transform="translate(0,0)"/>
<path d="" fill="#32B768" transform="translate(0,0)"/>
<path d="" fill="#30BC69" transform="translate(0,0)"/>
<path d="" fill="#30BA6A" transform="translate(0,0)"/>
<path d="" fill="#30BC6B" transform="translate(0,0)"/>
<path d="" fill="#2EBC6A" transform="translate(0,0)"/>
<path d="" fill="#31BA69" transform="translate(0,0)"/>
<path d="" fill="#32B969" transform="translate(0,0)"/>
<path d="" fill="#31BB6A" transform="translate(0,0)"/>
<path d="" fill="#2FBE6B" transform="translate(0,0)"/>
<path d="" fill="#32BD6B" transform="translate(0,0)"/>
<path d="" fill="#33BE70" transform="translate(0,0)"/>
<path d="" fill="#32C26C" transform="translate(0,0)"/>
<path d="" fill="#33C06C" transform="translate(0,0)"/>
<path d="" fill="#33BE6D" transform="translate(0,0)"/>
<path d="" fill="#32C06D" transform="translate(0,0)"/>
<path d="" fill="#30C26E" transform="translate(0,0)"/>
<path d="" fill="#31C26D" transform="translate(0,0)"/>
<path d="" fill="#30BF6D" transform="translate(0,0)"/>
<path d="" fill="#34C06D" transform="translate(0,0)"/>
<path d="" fill="#34C46E" transform="translate(0,0)"/>
<path d="" fill="#35C16D" transform="translate(0,0)"/>
<path d="" fill="#39D079" transform="translate(0,0)"/>
<path d="" fill="#32C16C" transform="translate(0,0)"/>
<path d="" fill="#32BF6D" transform="translate(0,0)"/>
<path d="" fill="#37C16E" transform="translate(0,0)"/>
<path d="" fill="#30C06A" transform="translate(0,0)"/>
<path d="" fill="#2FC16B" transform="translate(0,0)"/>
<path d="" fill="#34C26C" transform="translate(0,0)"/>
<path d="" fill="#35CD74" transform="translate(0,0)"/>
<path d="" fill="#3AD17B" transform="translate(0,0)"/>
<path d="" fill="#33C171" transform="translate(0,0)"/>
<path d="" fill="#35C872" transform="translate(0,0)"/>
<path d="" fill="#36C470" transform="translate(0,0)"/>
<path d="" fill="#35C56E" transform="translate(0,0)"/>
<path d="" fill="#38D27A" transform="translate(0,0)"/>
<path d="" fill="#33C56E" transform="translate(0,0)"/>
<path d="" fill="#33C270" transform="translate(0,0)"/>
<path d="" fill="#35C16D" transform="translate(0,0)"/>
<path d="" fill="#33C470" transform="translate(0,0)"/>
<path d="" fill="#33C772" transform="translate(0,0)"/>
<path d="" fill="#35C673" transform="translate(0,0)"/>
<path d="" fill="#34BF6E" transform="translate(0,0)"/>
<path d="" fill="#35C872" transform="translate(0,0)"/>
<path d="" fill="#35C770" transform="translate(0,0)"/>
<path d="" fill="#34CD75" transform="translate(0,0)"/>
<path d="" fill="#3ACF77" transform="translate(0,0)"/>
<path d="" fill="#38C06E" transform="translate(0,0)"/>
<path d="" fill="#35C672" transform="translate(0,0)"/>
<path d="" fill="#33C773" transform="translate(0,0)"/>
<path d="" fill="#35C873" transform="translate(0,0)"/>
<path d="" fill="#34C674" transform="translate(0,0)"/>
<path d="" fill="#33C771" transform="translate(0,0)"/>
<path d="" fill="#33C973" transform="translate(0,0)"/>
<path d="" fill="#38D079" transform="translate(0,0)"/>
<path d="" fill="#36C672" transform="translate(0,0)"/>
<path d="" fill="#31B266" transform="translate(0,0)"/>
<path d="" fill="#35C972" transform="translate(0,0)"/>
<path d="" fill="#34CA73" transform="translate(0,0)"/>
<path d="" fill="#37BD6D" transform="translate(0,0)"/>
<path d="" fill="#35C670" transform="translate(0,0)"/>
<path d="" fill="#34C972" transform="translate(0,0)"/>
<path d="" fill="#35C873" transform="translate(0,0)"/>
<path d="" fill="#34CB73" transform="translate(0,0)"/>
<path d="" fill="#38C772" transform="translate(0,0)"/>
<path d="" fill="#33C16F" transform="translate(0,0)"/>
<path d="" fill="#34C670" transform="translate(0,0)"/>
<path d="" fill="#35C876" transform="translate(0,0)"/>
<path d="" fill="#3CCE7B" transform="translate(0,0)"/>
<path d="" fill="#37C070" transform="translate(0,0)"/>
<path d="" fill="#36C973" transform="translate(0,0)"/>
<path d="" fill="#37C976" transform="translate(0,0)"/>
<path d="" fill="#39D17C" transform="translate(0,0)"/>
<path d="" fill="#31C971" transform="translate(0,0)"/>
<path d="" fill="#34CA74" transform="translate(0,0)"/>
<path d="" fill="#38CD75" transform="translate(0,0)"/>
<path d="" fill="#36CC77" transform="translate(0,0)"/>
<path d="" fill="#35CA75" transform="translate(0,0)"/>
<path d="" fill="#36CA73" transform="translate(0,0)"/>
<path d="" fill="#36C872" transform="translate(0,0)"/>
<path d="" fill="#34C16E" transform="translate(0,0)"/>
<path d="" fill="#36C872" transform="translate(0,0)"/>
<path d="" fill="#37C973" transform="translate(0,0)"/>
<path d="" fill="#3DD27C" transform="translate(0,0)"/>
<path d="" fill="#35C371" transform="translate(0,0)"/>
<path d="" fill="#34C772" transform="translate(0,0)"/>
<path d="" fill="#38CF76" transform="translate(0,0)"/>
<path d="" fill="#36C874" transform="translate(0,0)"/>
<path d="" fill="#30AF64" transform="translate(0,0)"/>
<path d="" fill="#33C270" transform="translate(0,0)"/>
<path d="" fill="#33CB75" transform="translate(0,0)"/>
<path d="" fill="#34CC73" transform="translate(0,0)"/>
<path d="" fill="#35CE74" transform="translate(0,0)"/>
<path d="" fill="#36C975" transform="translate(0,0)"/>
<path d="" fill="#35CC73" transform="translate(0,0)"/>
<path d="" fill="#36CA74" transform="translate(0,0)"/>
<path d="" fill="#35C973" transform="translate(0,0)"/>
<path d="" fill="#34CE76" transform="translate(0,0)"/>
<path d="" fill="#35CC75" transform="translate(0,0)"/>
<path d="" fill="#39D67C" transform="translate(0,0)"/>
<path d="" fill="#3BD37C" transform="translate(0,0)"/>
<path d="" fill="#3BD47E" transform="translate(0,0)"/>
<path d="" fill="#35CA72" transform="translate(0,0)"/>
<path d="" fill="#33CA75" transform="translate(0,0)"/>
<path d="" fill="#38C26F" transform="translate(0,0)"/>
<path d="" fill="#34CA73" transform="translate(0,0)"/>
<path d="" fill="#37C975" transform="translate(0,0)"/>
<path d="" fill="#34CA74" transform="translate(0,0)"/>
<path d="" fill="#37C96F" transform="translate(0,0)"/>
<path d="" fill="#33C973" transform="translate(0,0)"/>
<path d="" fill="#33CA72" transform="translate(0,0)"/>
<path d="" fill="#36CC75" transform="translate(0,0)"/>
<path d="" fill="#39D07A" transform="translate(0,0)"/>
<path d="" fill="#34CC75" transform="translate(0,0)"/>
<path d="" fill="#34C971" transform="translate(0,0)"/>
<path d="" fill="#37D47A" transform="translate(0,0)"/>
<path d="" fill="#36D47F" transform="translate(0,0)"/>
<path d="" fill="#30CC72" transform="translate(0,0)"/>
<path d="" fill="#36C874" transform="translate(0,0)"/>
<path d="" fill="#36CD72" transform="translate(0,0)"/>
<path d="" fill="#33C872" transform="translate(0,0)"/>
<path d="" fill="#31C972" transform="translate(0,0)"/>
<path d="" fill="#36C873" transform="translate(0,0)"/>
<path d="" fill="#37C872" transform="translate(0,0)"/>
<path d="" fill="#37C672" transform="translate(0,0)"/>
<path d="" fill="#3CD77F" transform="translate(0,0)"/>
<path d="" fill="#37CB76" transform="translate(0,0)"/>
<path d="" fill="#37C874" transform="translate(0,0)"/>
<path d="" fill="#33C672" transform="translate(0,0)"/>
<path d="" fill="#34C970" transform="translate(0,0)"/>
<path d="" fill="#33CA71" transform="translate(0,0)"/>
<path d="" fill="#38C472" transform="translate(0,0)"/>
<path d="" fill="#39C671" transform="translate(0,0)"/>
<path d="" fill="#37C772" transform="translate(0,0)"/>
<path d="" fill="#36C573" transform="translate(0,0)"/>
<path d="" fill="#34C472" transform="translate(0,0)"/>
<path d="" fill="#34C570" transform="translate(0,0)"/>
<path d="" fill="#38C876" transform="translate(0,0)"/>
<path d="" fill="#38D278" transform="translate(0,0)"/>
<path d="" fill="#39C272" transform="translate(0,0)"/>
<path d="" fill="#38C878" transform="translate(0,0)"/>
<path d="" fill="#38D27A" transform="translate(0,0)"/>
<path d="" fill="#33AF65" transform="translate(0,0)"/>
<path d="" fill="#35C672" transform="translate(0,0)"/>
<path d="" fill="#38C574" transform="translate(0,0)"/>
<path d="" fill="#37C574" transform="translate(0,0)"/>
<path d="" fill="#34C570" transform="translate(0,0)"/>
<path d="" fill="#39C572" transform="translate(0,0)"/>
<path d="" fill="#3AD07A" transform="translate(0,0)"/>
<path d="" fill="#32C36E" transform="translate(0,0)"/>
<path d="" fill="#35C872" transform="translate(0,0)"/>
<path d="" fill="#36CA74" transform="translate(0,0)"/>
<path d="" fill="#38C170" transform="translate(0,0)"/>
<path d="" fill="#34AD63" transform="translate(0,0)"/>
<path d="" fill="#35C973" transform="translate(0,0)"/>
<path d="" fill="#34CA73" transform="translate(0,0)"/>
<path d="" fill="#35C674" transform="translate(0,0)"/>
<path d="" fill="#36C36F" transform="translate(0,0)"/>
<path d="" fill="#33C26E" transform="translate(0,0)"/>
<path d="" fill="#32C771" transform="translate(0,0)"/>
<path d="" fill="#32B466" transform="translate(0,0)"/>
<path d="" fill="#33BE6D" transform="translate(0,0)"/>
<path d="" fill="#38BE6E" transform="translate(0,0)"/>
<path d="" fill="#35C271" transform="translate(0,0)"/>
<path d="" fill="#39C16F" transform="translate(0,0)"/>
<path d="" fill="#37C672" transform="translate(0,0)"/>
<path d="" fill="#35CF79" transform="translate(0,0)"/>
<path d="" fill="#35C36F" transform="translate(0,0)"/>
<path d="" fill="#37BB6B" transform="translate(0,0)"/>
<path d="" fill="#3ABF6E" transform="translate(0,0)"/>
<path d="" fill="#36C171" transform="translate(0,0)"/>
<path d="" fill="#35C471" transform="translate(0,0)"/>
<path d="" fill="#38BE6F" transform="translate(0,0)"/>
<path d="" fill="#38BE6E" transform="translate(0,0)"/>
<path d="" fill="#35BA6A" transform="translate(0,0)"/>
<path d="" fill="#37BB6D" transform="translate(0,0)"/>
<path d="" fill="#35C170" transform="translate(0,0)"/>
<path d="" fill="#36C372" transform="translate(0,0)"/>
<path d="" fill="#37BD70" transform="translate(0,0)"/>
<path d="" fill="#33C471" transform="translate(0,0)"/>
<path d="" fill="#35C16F" transform="translate(0,0)"/>
<path d="" fill="#36C171" transform="translate(0,0)"/>
<path d="" fill="#36C974" transform="translate(0,0)"/>
<path d="" fill="#35C172" transform="translate(0,0)"/>
<path d="" fill="#35CC75" transform="translate(0,0)"/>
<path d="" fill="#35C573" transform="translate(0,0)"/>
<path d="" fill="#36C872" transform="translate(0,0)"/>
<path d="" fill="#36CA73" transform="translate(0,0)"/>
<path d="" fill="#37C573" transform="translate(0,0)"/>
<path d="" fill="#37C371" transform="translate(0,0)"/>
<path d="" fill="#37C672" transform="translate(0,0)"/>
<path d="" fill="#39D47B" transform="translate(0,0)"/>
<path d="" fill="#37D57B" transform="translate(0,0)"/>
<path d="" fill="#38D179" transform="translate(0,0)"/>
<path d="" fill="#38D17A" transform="translate(0,0)"/>
<path d="" fill="#3FC373" transform="translate(0,0)"/>
<path d="" fill="#39D37A" transform="translate(0,0)"/>
<path d="" fill="#35BF6C" transform="translate(0,0)"/>
<path d="" fill="#38D27A" transform="translate(0,0)"/>
<path d="" fill="#3BC173" transform="translate(0,0)"/>
<path d="" fill="#39CA75" transform="translate(0,0)"/>
<path d="" fill="#3BD279" transform="translate(0,0)"/>
<path d="" fill="#3BD17B" transform="translate(0,0)"/>
<path d="" fill="#39D478" transform="translate(0,0)"/>
<path d="" fill="#37C777" transform="translate(0,0)"/>
<path d="" fill="#39BC6C" transform="translate(0,0)"/>
<path d="" fill="#39C171" transform="translate(0,0)"/>
<path d="" fill="#3CD47D" transform="translate(0,0)"/>
<path d="" fill="#3CD47B" transform="translate(0,0)"/>
<path d="" fill="#37C574" transform="translate(0,0)"/>
<path d="" fill="#3CC473" transform="translate(0,0)"/>
<path d="" fill="#3BC574" transform="translate(0,0)"/>
<path d="" fill="#38C271" transform="translate(0,0)"/>
<path d="" fill="#39C273" transform="translate(0,0)"/>
<path d="" fill="#37C271" transform="translate(0,0)"/>
<path d="" fill="#3AC672" transform="translate(0,0)"/>
<path d="" fill="#38C273" transform="translate(0,0)"/>
<path d="" fill="#36BF71" transform="translate(0,0)"/>
<path d="" fill="#2E6440" transform="translate(0,0)"/>
<path d="" fill="#2E6843" transform="translate(0,0)"/>
<path d="" fill="#213B29" transform="translate(0,0)"/>
<path d="" fill="#234832" transform="translate(0,0)"/>
<path d="" fill="#285538" transform="translate(0,0)"/>
<path d="" fill="#264E33" transform="translate(0,0)"/>
<path d="" fill="#203B29" transform="translate(0,0)"/>
<path d="" fill="#22402B" transform="translate(0,0)"/>
<path d="" fill="#203D2A" transform="translate(0,0)"/>
<path d="" fill="#203D2A" transform="translate(0,0)"/>
<path d="" fill="#213A2A" transform="translate(0,0)"/>
<path d="" fill="#213B2A" transform="translate(0,0)"/>
<path d="" fill="#1C3325" transform="translate(0,0)"/>
<path d="" fill="#213728" transform="translate(0,0)"/>
<path d="" fill="#1E3828" transform="translate(0,0)"/>
<path d="" fill="#1F3728" transform="translate(0,0)"/>
<path d="" fill="#213D2A" transform="translate(0,0)"/>
<path d="" fill="#1F3525" transform="translate(0,0)"/>
<path d="" fill="#1E3426" transform="translate(0,0)"/>
<path d="" fill="#203726" transform="translate(0,0)"/>
<path d="" fill="#1F3627" transform="translate(0,0)"/>
<path d="" fill="#1D3325" transform="translate(0,0)"/>
<path d="" fill="#1D3225" transform="translate(0,0)"/>
<path d="" fill="#1D3024" transform="translate(0,0)"/>
<path d="" fill="#1D3526" transform="translate(0,0)"/>
<path d="" fill="#1B3022" transform="translate(0,0)"/>
<path d="" fill="#1D3223" transform="translate(0,0)"/>
<path d="" fill="#1C3024" transform="translate(0,0)"/>
<path d="" fill="#1D3124" transform="translate(0,0)"/>
<path d="" fill="#1C2E24" transform="translate(0,0)"/>
<path d="" fill="#1C3026" transform="translate(0,0)"/>
<path d="" fill="#1A3124" transform="translate(0,0)"/>
<path d="" fill="#1C2E21" transform="translate(0,0)"/>
<path d="" fill="#182920" transform="translate(0,0)"/>
<path d="" fill="#1C2D22" transform="translate(0,0)"/>
<path d="" fill="#192C21" transform="translate(0,0)"/>
<path d="" fill="#1B2B22" transform="translate(0,0)"/>
<path d="" fill="#1B2A21" transform="translate(0,0)"/>
<path d="" fill="#1B2C21" transform="translate(0,0)"/>
<path d="" fill="#1A2A20" transform="translate(0,0)"/>
<path d="" fill="#1B2A21" transform="translate(0,0)"/>
<path d="" fill="#1B2C20" transform="translate(0,0)"/>
<path d="" fill="#1B2A21" transform="translate(0,0)"/>
<path d="" fill="#1C2C21" transform="translate(0,0)"/>
<path d="" fill="#1B2C22" transform="translate(0,0)"/>
<path d="" fill="#1B2921" transform="translate(0,0)"/>
<path d="" fill="#1A2A21" transform="translate(0,0)"/>
<path d="" fill="#1A2B22" transform="translate(0,0)"/>
<path d="" fill="#1D2D22" transform="translate(0,0)"/>
<path d="" fill="#1B291F" transform="translate(0,0)"/>
<path d="" fill="#1B2A21" transform="translate(0,0)"/>
<path d="" fill="#1C2B20" transform="translate(0,0)"/>
<path d="" fill="#192920" transform="translate(0,0)"/>
<path d="" fill="#1B2920" transform="translate(0,0)"/>
<path d="" fill="#1B2B20" transform="translate(0,0)"/>
<path d="" fill="#1A2D22" transform="translate(0,0)"/>
<path d="" fill="#1A291F" transform="translate(0,0)"/>
<path d="" fill="#1A2720" transform="translate(0,0)"/>
<path d="" fill="#1B2A1F" transform="translate(0,0)"/>
<path d="" fill="#1C291F" transform="translate(0,0)"/>
<path d="" fill="#1A2A21" transform="translate(0,0)"/>
<path d="" fill="#1B2B21" transform="translate(0,0)"/>
<path d="" fill="#1B2C20" transform="translate(0,0)"/>
<path d="" fill="#192920" transform="translate(0,0)"/>
<path d="" fill="#1B2A22" transform="translate(0,0)"/>
<path d="" fill="#1C2C25" transform="translate(0,0)"/>
<path d="" fill="#1D2C24" transform="translate(0,0)"/>
<path d="" fill="#1B2A21" transform="translate(0,0)"/>
<path d="" fill="#1A2A20" transform="translate(0,0)"/>
<path d="" fill="#1C2A21" transform="translate(0,0)"/>
<path d="" fill="#1B2920" transform="translate(0,0)"/>
<path d="" fill="#1A2821" transform="translate(0,0)"/>
<path d="" fill="#1B2922" transform="translate(0,0)"/>
<path d="" fill="#1A2920" transform="translate(0,0)"/>
<path d="" fill="#1B2A21" transform="translate(0,0)"/>
<path d="" fill="#1A2920" transform="translate(0,0)"/>
<path d="" fill="#1A271F" transform="translate(0,0)"/>
<path d="" fill="#18291F" transform="translate(0,0)"/>
<path d="" fill="#19291E" transform="translate(0,0)"/>
<path d="" fill="#1B2920" transform="translate(0,0)"/>
<path d="" fill="#1B2921" transform="translate(0,0)"/>
<path d="" fill="#1B2921" transform="translate(0,0)"/>
<path d="" fill="#1A281E" transform="translate(0,0)"/>
<path d="" fill="#1A2921" transform="translate(0,0)"/>
<path d="" fill="#1B2920" transform="translate(0,0)"/>
</svg>
